<svg xmlns="http://www.w3.org/2000/svg" viewBox="0 0 1200 630" width="1200" height="630">
  <defs>
    <linearGradient id="bg" x1="0%" y1="0%" x2="100%" y2="100%">
      <stop offset="0%" style="stop-color:#0f2340"/>
      <stop offset="60%" style="stop-color:#1e3a5f"/>
      <stop offset="100%" style="stop-color:#1a4a7a"/>
    </linearGradient>
    <linearGradient id="orange" x1="0%" y1="0%" x2="100%" y2="0%">
      <stop offset="0%" style="stop-color:#ea580c"/>
      <stop offset="100%" style="stop-color:#fb923c"/>
    </linearGradient>
  </defs>
  <!-- Background -->
  <rect width="1200" height="630" fill="url(#bg)"/>
  <!-- Grid lines -->
  <g opacity="0.04">
    <line x1="0" y1="60" x2="1200" y2="60" stroke="white" stroke-width="1"/>
    <line x1="0" y1="120" x2="1200" y2="120" stroke="white" stroke-width="1"/>
    <line x1="0" y1="180" x2="1200" y2="180" stroke="white" stroke-width="1"/>
    <line x1="0" y1="240" x2="1200" y2="240" stroke="white" stroke-width="1"/>
    <line x1="0" y1="300" x2="1200" y2="300" stroke="white" stroke-width="1"/>
    <line x1="0" y1="360" x2="1200" y2="360" stroke="white" stroke-width="1"/>
    <line x1="0" y1="420" x2="1200" y2="420" stroke="white" stroke-width="1"/>
    <line x1="0" y1="480" x2="1200" y2="480" stroke="white" stroke-width="1"/>
    <line x1="0" y1="540" x2="1200" y2="540" stroke="white" stroke-width="1"/>
    <line x1="0" y1="600" x2="1200" y2="600" stroke="white" stroke-width="1"/>
    <line x1="120" y1="0" x2="120" y2="630" stroke="white" stroke-width="1"/>
    <line x1="240" y1="0" x2="240" y2="630" stroke="white" stroke-width="1"/>
    <line x1="360" y1="0" x2="360" y2="630" stroke="white" stroke-width="1"/>
    <line x1="480" y1="0" x2="480" y2="630" stroke="white" stroke-width="1"/>
    <line x1="600" y1="0" x2="600" y2="630" stroke="white" stroke-width="1"/>
    <line x1="720" y1="0" x2="720" y2="630" stroke="white" stroke-width="1"/>
    <line x1="840" y1="0" x2="840" y2="630" stroke="white" stroke-width="1"/>
    <line x1="960" y1="0" x2="960" y2="630" stroke="white" stroke-width="1"/>
    <line x1="1080" y1="0" x2="1080" y2="630" stroke="white" stroke-width="1"/>
  </g>
  <!-- Basketball decoration (right side) -->
  <circle cx="980" cy="315" r="220" fill="none" stroke="rgba(255,255,255,0.06)" stroke-width="3"/>
  <circle cx="980" cy="315" r="140" fill="none" stroke="rgba(255,255,255,0.06)" stroke-width="3"/>
  <circle cx="1090" cy="315" r="300" fill="none" stroke="rgba(234,88,12,0.15)" stroke-width="60"/>
  <!-- Orange accent bar -->
  <rect x="88" y="110" width="8" height="130" rx="4" fill="url(#orange)"/>
  <!-- Main text -->
  <text x="118" y="195" font-family="Arial Black, Arial, sans-serif" font-size="92" font-weight="900" fill="white" letter-spacing="2">TUSCANY</text>
  <text x="118" y="300" font-family="Arial Black, Arial, sans-serif" font-size="92" font-weight="900" fill="#ea580c" letter-spacing="2">BASKETBALL</text>
  <text x="118" y="395" font-family="Arial Black, Arial, sans-serif" font-size="92" font-weight="900" fill="white" letter-spacing="2">CAMP</text>
  <!-- Tagline -->
  <text x="118" y="458" font-family="Arial, sans-serif" font-size="28" fill="rgba(255,255,255,0.6)" letter-spacing="1">Build Skills. Build Confidence. Build Champions.</text>
  <!-- Meta info bar -->
  <rect x="88" y="490" width="740" height="2" rx="1" fill="rgba(255,255,255,0.12)"/>
  <text x="118" y="535" font-family="Arial, sans-serif" font-size="22" fill="rgba(255,255,255,0.5)" letter-spacing="0.5">Calgary, AB  ·  Ages 7–15  ·  July – August 15, 2025  ·  CPR-Certified Coaches</text>
  <!-- Basketball icon small -->
  <circle cx="118" cy="575" r="14" fill="#ea580c"/>
  <path d="M118 561 Q126 568 126 575 Q126 582 118 589" fill="none" stroke="rgba(0,0,0,0.25)" stroke-width="2"/>
  <path d="M118 561 Q110 568 110 575 Q110 582 118 589" fill="none" stroke="rgba(0,0,0,0.25)" stroke-width="2"/>
  <line x1="104" y1="575" x2="132" y2="575" stroke="rgba(0,0,0,0.25)" stroke-width="2"/>
  <text x="143" y="580" font-family="Arial, sans-serif" font-size="20" fill="rgba(255,255,255,0.4)">tuscanybasketballcamp.ca</text>
</svg>
